<svg id="Capa_1" data-name="Capa 1" xmlns="http://www.w3.org/2000/svg" viewBox="0 0 2414 432.78"><defs><style>.cls-1{fill:#005697;}.cls-2{fill:#fad218;}.cls-3{fill:#dd342b;}.cls-4{fill:#db1e34;}.cls-5{fill:#ffb71b;}.cls-6{fill:#6c309f;}.cls-7{fill:#fff;}.cls-8{fill:#00d200;}.cls-9{fill:#26a2be;}</style></defs><path d="M1116.68,361.52l-4.21-11.27-4.11,11.27ZM1128,373.64h-6.71l-2.64-6.95h-12.24l-2.53,6.95h-6.54l11.89-30.55h6.56Z"/><polygon points="1129.69 373.64 1129.69 343.35 1135.87 343.35 1135.87 368.47 1151.19 368.47 1151.19 373.64 1129.69 373.64"/><path d="M1171.84,362.35l6,1.92a13.69,13.69,0,0,1-4.57,7.47,14.47,14.47,0,0,1-18.13-1.73c-2.63-2.77-3.92-6.57-3.92-11.37,0-5.08,1.29-9,3.94-11.83a13.54,13.54,0,0,1,10.36-4.23,12.74,12.74,0,0,1,9.12,3.32,12.38,12.38,0,0,1,3.14,5.63l-6.13,1.46a6.37,6.37,0,0,0-2.25-3.75,6.49,6.49,0,0,0-4.17-1.38,7,7,0,0,0-5.54,2.45q-2.12,2.42-2.12,7.88c0,3.86.7,6.59,2.09,8.23a6.79,6.79,0,0,0,5.42,2.46,6.2,6.2,0,0,0,4.24-1.57,9.32,9.32,0,0,0,2.55-5"/><path d="M1197.12,361.52l-4.21-11.27-4.13,11.27Zm11.38,12.12h-6.73l-2.66-6.95H1186.9l-2.55,6.95h-6.54l11.9-30.55h6.55Z"/><polygon points="1210.72 373.64 1210.72 343.35 1216.89 343.35 1216.89 368.47 1232.22 368.47 1232.22 373.64 1210.72 373.64"/><path d="M1240.88,348.28v20.19h4.6a15.54,15.54,0,0,0,3.73-.31,5.65,5.65,0,0,0,2.51-1.24,6.92,6.92,0,0,0,1.61-3,20.5,20.5,0,0,0,.62-5.58,18.82,18.82,0,0,0-.62-5.43,7.3,7.3,0,0,0-1.75-3,6.37,6.37,0,0,0-2.85-1.44,31.8,31.8,0,0,0-5.08-.27Zm-6.18-5.18H1246a22.62,22.62,0,0,1,5.83.58,10.08,10.08,0,0,1,4.58,2.82,13,13,0,0,1,2.93,4.93,22.54,22.54,0,0,1,1,7.23,20.32,20.32,0,0,1-.92,6.51,13.32,13.32,0,0,1-3.28,5.38,10.53,10.53,0,0,1-4.33,2.44,18.45,18.45,0,0,1-5.46.64H1234.7Z"/><path d="M1263.09,343.1h6.17v30.54h-6.17Zm1.54-2.81,2.86-6.22H1274l-5.71,6.22Z"/><path d="M1291.44,361.52l-4.22-11.27-4.12,11.27Zm11.36,12.12h-6.72l-2.66-6.95H1281.2l-2.53,6.95h-6.54L1284,343.09h6.57Z"/><polygon points="1317.19 373.64 1317.19 343.09 1326.43 343.09 1331.95 363.93 1337.44 343.09 1346.68 343.09 1346.68 373.64 1340.96 373.64 1340.94 349.61 1334.88 373.64 1328.94 373.64 1322.92 349.61 1322.9 373.64 1317.19 373.64"/><path d="M1368.27,361.52l-4.22-11.27-4.14,11.27Zm11.36,12.12h-6.7l-2.68-6.95H1358l-2.56,6.95H1349l11.88-30.55h6.58Z"/><polygon points="1383.21 373.64 1383.21 360.79 1372.04 343.09 1379.27 343.09 1386.49 355.21 1393.53 343.09 1400.63 343.09 1389.41 360.82 1389.41 373.64 1383.21 373.64"/><path d="M1404.37,358.36c0,3.43.8,6.07,2.39,7.86a7.85,7.85,0,0,0,6.1,2.66,7.73,7.73,0,0,0,6-2.66c1.59-1.75,2.37-4.43,2.37-8s-.74-6.1-2.3-7.83a7.79,7.79,0,0,0-6.1-2.57,7.89,7.89,0,0,0-6.15,2.6c-1.57,1.75-2.34,4.37-2.34,7.89m-6.36.2a19.59,19.59,0,0,1,1.39-7.83,14.24,14.24,0,0,1,2.83-4.17,12,12,0,0,1,4-2.77,16.61,16.61,0,0,1,6.58-1.21,14.42,14.42,0,0,1,10.81,4.19c2.68,2.79,4,6.7,4,11.65s-1.34,8.79-4,11.55-6.29,4.2-10.77,4.2-8.14-1.4-10.85-4.16-4-6.59-4-11.45"/><path d="M1435.9,356h4.55a24.61,24.61,0,0,0,5.52-.37,3.23,3.23,0,0,0,1.74-1.31,4,4,0,0,0,.62-2.28,3.48,3.48,0,0,0-3.13-3.69c-.47-.06-2-.09-4.49-.09h-4.81Zm-6.19,17.61V343.09h13a21.85,21.85,0,0,1,7.12.84,6.74,6.74,0,0,1,3.54,2.92,8.69,8.69,0,0,1,1.35,4.84,8.23,8.23,0,0,1-2,5.66,9.7,9.7,0,0,1-6,2.82,14.12,14.12,0,0,1,3.28,2.57,31.78,31.78,0,0,1,3.48,4.95l3.76,5.95h-7.4l-4.42-6.65c-1.6-2.37-2.69-3.84-3.25-4.5a5.4,5.4,0,0,0-1.85-1.26,11.45,11.45,0,0,0-3.13-.33h-1.25v12.74Z"/><rect x="1395.99" y="418.49" width="5.75" height="5.78"/><path d="M1125.54,399.24v19.83h4.54a17.51,17.51,0,0,0,3.67-.27,5.76,5.76,0,0,0,2.45-1.25,6.56,6.56,0,0,0,1.59-2.88,20,20,0,0,0,.62-5.5,18,18,0,0,0-.62-5.33,7.1,7.1,0,0,0-1.72-2.91,6,6,0,0,0-2.82-1.41,29.75,29.75,0,0,0-5-.28Zm-6.07-5.1h11.09a21.64,21.64,0,0,1,5.71.58,10.26,10.26,0,0,1,4.53,2.76,12.78,12.78,0,0,1,2.85,4.88,21.33,21.33,0,0,1,1,7.07,19.89,19.89,0,0,1-.91,6.41,13.28,13.28,0,0,1-3.21,5.29,10.47,10.47,0,0,1-4.27,2.39,17.38,17.38,0,0,1-5.36.65h-11.42Z"/><polygon points="1146.67 424.17 1146.67 394.14 1168.92 394.14 1168.92 399.25 1152.75 399.25 1152.75 405.88 1167.78 405.88 1167.78 410.96 1152.75 410.96 1152.75 419.07 1169.51 419.07 1169.51 424.17 1146.67 424.17"/><path d="M1190.23,411.07v8h5.6a27.45,27.45,0,0,0,4.17-.17,3.89,3.89,0,0,0,2.21-1.18,3.69,3.69,0,0,0,.85-2.55,3.6,3.6,0,0,0-2.55-3.67,20.75,20.75,0,0,0-5.38-.42Zm0-11.94v6.94h4c2.36,0,3.82,0,4.4-.1a4,4,0,0,0,2.44-1.08,3.15,3.15,0,0,0,.9-2.33,3.11,3.11,0,0,0-3.06-3.31c-.59-.07-2.32-.12-5.18-.12Zm-6.07-5h12a34.36,34.36,0,0,1,5.3.3,7.59,7.59,0,0,1,3.12,1.24,7.76,7.76,0,0,1,2.31,2.48,7.25,7.25,0,0,1-.21,7.39,7,7,0,0,1-3.06,2.63,8.14,8.14,0,0,1,4.19,2.72,7.2,7.2,0,0,1,1.48,4.55,8.86,8.86,0,0,1-1,4,8.11,8.11,0,0,1-2.59,3.09,8.76,8.76,0,0,1-4.08,1.45c-1,.09-3.45.16-7.3.18h-10.22Z"/><path d="M1217.68,409.13c0,3.41.79,6,2.35,7.71a8.11,8.11,0,0,0,11.94,0c1.53-1.74,2.31-4.34,2.31-7.83s-.76-6-2.26-7.68a7.63,7.63,0,0,0-6-2.53,7.72,7.72,0,0,0-6,2.56c-1.53,1.72-2.3,4.29-2.3,7.73m-6.25.2a19.34,19.34,0,0,1,1.35-7.68,14.89,14.89,0,0,1,2.81-4.13,11.74,11.74,0,0,1,3.89-2.69,16.58,16.58,0,0,1,6.46-1.19q6.64,0,10.61,4.13t4,11.45c0,4.81-1.3,8.62-4,11.33s-6.15,4.12-10.56,4.12-8-1.37-10.63-4.07-4-6.49-4-11.27"/><path d="M1258.27,413.19v-5.1h13.07V420a16.84,16.84,0,0,1-5.53,3.24,20,20,0,0,1-7.31,1.42,16.47,16.47,0,0,1-8.21-2,12.55,12.55,0,0,1-5.26-5.64,18.45,18.45,0,0,1-1.77-8,17.13,17.13,0,0,1,2-8.31,13.24,13.24,0,0,1,5.74-5.61,15.64,15.64,0,0,1,7.2-1.49c3.72,0,6.62.79,8.73,2.33a10.63,10.63,0,0,1,4,6.5l-6,1.14a6.36,6.36,0,0,0-2.39-3.5,7.06,7.06,0,0,0-4.36-1.27,8.16,8.16,0,0,0-6.3,2.51c-1.57,1.69-2.36,4.16-2.36,7.46,0,3.55.8,6.23,2.39,8a7.82,7.82,0,0,0,6.2,2.7,10.7,10.7,0,0,0,3.81-.74,12.64,12.64,0,0,0,3.28-1.81v-3.75Z"/><path d="M1280.19,409.13c0,3.41.77,6,2.34,7.71a7.6,7.6,0,0,0,6,2.64,7.75,7.75,0,0,0,6-2.6c1.55-1.74,2.31-4.34,2.31-7.83s-.73-6-2.24-7.68a8.44,8.44,0,0,0-12.08,0c-1.53,1.72-2.29,4.29-2.29,7.73m-6.25.2a19,19,0,0,1,1.36-7.68,14.64,14.64,0,0,1,2.8-4.13,12.12,12.12,0,0,1,3.88-2.69,16.72,16.72,0,0,1,6.48-1.19,14.18,14.18,0,0,1,10.63,4.13c2.61,2.72,4,6.54,4,11.45s-1.33,8.62-3.93,11.33-6.16,4.12-10.58,4.12-8-1.37-10.64-4.07-4-6.49-4-11.27"/><polygon points="1312.04 424.17 1312.04 399.25 1303.13 399.25 1303.13 394.14 1326.99 394.14 1326.99 399.25 1318.1 399.25 1318.1 424.17 1312.04 424.17"/><path d="M1336.71,391.4l2.82-6.12H1346l-5.61,6.12Zm6.27,20.84-4.16-11.09-4,11.09Zm11.18,11.93h-6.62l-2.61-6.84h-12l-2.47,6.84H1324l11.68-30h6.45Z"/><path d="M1376.87,399.24v19.83h4.53a17.55,17.55,0,0,0,3.68-.27,5.79,5.79,0,0,0,2.46-1.25,6.56,6.56,0,0,0,1.58-2.88,19.74,19.74,0,0,0,.6-5.5,17.79,17.79,0,0,0-.6-5.33,6.82,6.82,0,0,0-1.74-2.91,5.88,5.88,0,0,0-2.78-1.41,30.24,30.24,0,0,0-5-.28Zm-6.07-5.1h11.11a21.8,21.8,0,0,1,5.71.58,10.29,10.29,0,0,1,4.52,2.76,13.34,13.34,0,0,1,2.87,4.88,21.92,21.92,0,0,1,1,7.07,19.87,19.87,0,0,1-.92,6.41,13.31,13.31,0,0,1-3.23,5.29,10.28,10.28,0,0,1-4.24,2.39,17.6,17.6,0,0,1-5.38.65H1370.8Z"/><path d="M1422.55,413.08l5.86,1.87a13.48,13.48,0,0,1-4.47,7.33,14.16,14.16,0,0,1-17.81-1.68q-3.89-4.08-3.88-11.18c0-5,1.31-8.87,3.89-11.61a13.25,13.25,0,0,1,10.17-4.17,12.46,12.46,0,0,1,9,3.27,11.72,11.72,0,0,1,3.08,5.54l-6,1.43a6.23,6.23,0,0,0-6.3-5.05,6.83,6.83,0,0,0-5.46,2.4c-1.39,1.59-2.07,4.18-2.07,7.75,0,3.78.67,6.49,2,8.08a6.54,6.54,0,0,0,5.31,2.42,6,6,0,0,0,4.17-1.54,8.89,8.89,0,0,0,2.5-4.86"/><rect x="1429.35" y="418.58" width="5.76" height="5.74"/><path class="cls-1" d="M1169.93,66.71A116,116,0,0,0,1277.3,67c33.61,17.29,73.9,17.5,107.35-.25V259.12c0,23.54-19.67,42.24-43.66,42.24-23.23,0-43.7,3.46-63.69,16-20-12.79-40.68-16-63.93-16-24,0-43.44-18.7-43.44-42.24Z"/><path class="cls-2" d="M1206.54,239.45a27.51,27.51,0,0,0,28,27.93c15.83,0,28.85,1.72,42.6,10.34,13.64-8.54,26.58-10.34,42.3-10.34,16.21,0,30-12.57,30-27.93l.16-129.37c-17.45,9.08-54.87,3.11-71.57-5.6-16.52,8.62-54.34,14.81-71.56,5.6"/><path class="cls-3" d="M1231.39,226.5c-2.44,1.59-6.28.53-9.55-4.21-3-4.76-3-10-.54-11.32s7.08,1,10.09,5.79c3.29,4.47,2.47,8.43,0,9.74m5.21,3c3.29-1.14,7.48-3.53,5.18-7.78,0,0-5.24,5.51-9.27,5.17,5.59-3.75,7.8-10.06,4.89-14.65-3-4.76-10.37-5.54-16.38-1.84s-8.48,10.53-5.47,15.27c2.87,4.52,9.47,5.46,15.52,2.1-2.44,3.66-7.23,4.83-9.23,5.54,0,0,3.36,6.48,10.84-2.13,13.08,9.15,10.21,20.67,11.29,25.84l6.28.26c-.78-3.77-.82-19-13.65-27.78"/><path class="cls-3" d="M1218.56,210.69c.54.78,3.55-1.05,3.28-1.83-.82-1.33-.27-5,2.47-5.28v-1.05s-4.11,0-4.94,2.62c0,0-3.26-3.42-4.08-3.14-.82.52.82,5,.82,5-2.75-.5-4.1,3.17-4.1,3.17l.53.53c1.64-2.36,5.2-1.31,6,0"/><path class="cls-3" d="M1332.75,222.29c-3.26,4.74-7.11,5.79-9.54,4.21-2.48-1.31-3.28-5.27,0-9.74,3-4.75,7.63-7.13,10.09-5.79s2.45,6.57-.55,11.32m.84-11.85c-6-3.71-13.39-2.91-16.38,1.84-2.93,4.6-.74,10.9,4.9,14.65-4.06.35-9.3-5.17-9.3-5.17-2.29,4.25,1.9,6.64,5.16,7.79-12.78,8.72-12.81,24-13.64,27.77l6.29-.26c1.08-5.17-1.81-16.69,11.32-25.84,7.44,8.62,10.81,2.14,10.81,2.14-2-.72-6.75-1.89-9.23-5.55,6.06,3.37,12.65,2.42,15.53-2.1,3-4.74.56-11.6-5.46-15.27"/><path class="cls-3" d="M1251.89,238.89a13.07,13.07,0,0,0-3,9.21,10.67,10.67,0,0,0,8.21-3.95,11.29,11.29,0,0,0,3-9,12.22,12.22,0,0,0-8.2,3.69"/><path class="cls-3" d="M1338.5,207s1.66-4.46.82-5c-.82-.27-4.08,3.15-4.08,3.15-.84-2.62-5-2.62-5-2.62v1c2.76.27,3.31,4,2.47,5.28-.26.8,2.74,2.62,3.29,1.84.81-1.31,4.37-2.36,6,0l.56-.53s-1.34-3.67-4.1-3.17"/><path class="cls-3" d="M1302.71,238.89a12.24,12.24,0,0,0-8.19-3.69,11.1,11.1,0,0,0,3,9,10.55,10.55,0,0,0,8.18,3.95,13,13,0,0,0-3-9.21"/><path d="M1286.38,203.71c-4.51-3.45.56-5,1.76-3.82,11.21,9.48,21.32,2.92,21.32,2.92-7.94-2.67-11.75-11.61-11.75-11.61,16.4,9.48,29-1.31,29-1.31-10.9,1.84-19.4-8.44-19.4-8.44,16.94,4,28.67-7.37,28.67-7.37-6.28.51-21.82-6.06-21.82-6.06,24.85-.79,27-18.46,27.31-18.46-6.85,4.5-25.15,2.37-25.15,2.37,26-9.21,24-30.54,24-30.54-5.49,8.15-30.58,16.06-30.58,16.06-6.84,2.1-12.3,8.19-12.3,15.28a6.1,6.1,0,0,1-6,5.27c-6.69,0-6.6-9.66-6.6-14.24,0-6.85-.25-14.73-5.19-14.73h-9.82c-1.78,0-4.83-.19-6.09,1.32-2.55,3-2.16,10.77-1,9.2,0,0,3.83-1.05,6.29,0,3.16.92.82,10.77.82,12.92,0,2.9-2.74,5.53-6,5.53a6.1,6.1,0,0,1-6-5.27c0-7.09-5.46-13.18-12-15.28,0,0-25.68-7.91-31.13-16.06,0,0-1.92,21.58,24.3,31.08,0,0-18.57,1.59-25.4-2.91.27,0,3.54,18.46,28.4,19.25,0,0-16.38,5.52-22.38,4.73,0,0,11.72,13.44,29.23,9.49,0,0-9.58,8.7-20.52,6.86,0,0,12.32,11,29,1.84,0,0-3.56,8.41-11.49,11.08,0,0,10.11,6.56,21.58-2.92,1.45-1.63,6.13.25,1.45,3.82-6.24,4.77-15.14,5.92-18.93,13.83l4.6.9c-5.17,5.23-12.08,12.63-12.8,12.81,0,0-1.63-2.37-6.82.26-2.74,1.31-4.1,4.73-2.19,6.06,0,0-.82,4.22,4.1,3.94,0,0,1.91,3.44,6,.8,3.84-2.65-.27-1.84-.83-2.88-.53-.82.28-.54.28-.54,1.91-.28,4.39-2.38,2.72-4.21-.17-.34,8.9-6,15.56-10.06l.84,4.26a18,18,0,0,1,9.51-6.31,26.2,26.2,0,0,0-5.13,21.07s1.08-3.43,6.56-4c0,0-7.65,9.24,4.64,27.15,12.28-17.91,5.2-27.15,5.2-27.15,5.44.55,6.82,4,6.82,4,1.23-9.1-1.13-15.59-5.46-21.24a17.38,17.38,0,0,1,9.56,6.48l.87-4.37c6.58,4.09,15.69,9.83,15.53,10.17-1.67,1.83,1.06,3.93,2.71,4.21,0,0,.55-.28.29.54-.56,1-4.67.23-.83,2.88s6-.8,6-.8c4.91.28,4.12-3.94,4.12-3.94,1.89-1.33.53-4.75-2.48-6.06-5.17-2.63-6.82-.26-6.82-.26-.55-.18-7.38-7.59-12.47-12.83l4.53-.88c-3.31-7.58-12.15-9.24-18.14-13.83m-3.15-77.06,5.47-8.44-8.48,3.18-3-7.63-3.27,7.63-8.74-3.18,5.74,8.44Zm-12.57,7.91a2.54,2.54,0,0,1,2.72-2.64,2.47,2.47,0,0,1,2.46,2.64,2.4,2.4,0,0,1-2.46,2.35,2.48,2.48,0,0,1-2.72-2.35"/><path class="cls-2" d="M1190.08,102.71c2.46.26,4.37,4.47,4.09,9.74-.27,5-3,7.65-5.46,7.37-2.72-.25-4.91-3.16-4.64-8.15.28-5.27,3.28-9.23,6-9m-2.78,17.77c-3.7,1.32-7.6-.18-9.78-.66,0,0-.72,6.08,8.55,4.14-.46,4.8,2.45,8.37,3.74,13.1a11.78,11.78,0,0,0-2.46-2.21,13.58,13.58,0,0,0-9-1.58,8.75,8.75,0,0,0,4.36,6.6,12.11,12.11,0,0,0,7.65,2,20.17,20.17,0,0,1-2.2,8l4.38,3.42c2.19-4.21,2.73-14-.54-20.8-2.23-4.69-2.67-6.49-2.4-8.28,3,1.08,9,2.57,9.78-2.55,0,0-6.7,1.1-9.81-1,6.07-.18,11.21-3.74,11.72-8.44.27-5-4.66-9.48-11.21-9.75-6.55-.53-12.29,3.17-12.85,8.16-.25,4.71,4.09,9,10.07,9.88"/><path class="cls-2" d="M1286.76,97.17c-1.64,1.83.3,4.75.3,4.75h.79a3.82,3.82,0,0,1,3.31-4.75c.79,0,.79-3.17,0-3.17-1.39,0-4.1-2.1-2.75-4.47l-.83-.27s-2.17,2.9-.52,4.74c0,0-4.66.8-4.66,1.58s4.36,1.59,4.36,1.59"/><path class="cls-2" d="M1188.44,100.6c0,.79,3.3,1.06,3.56.26,0-1.31,2.45-3.68,4.9-2.64l.29-.51s-2.74-2.39-4.93-.81c0,0-.52-4.21-1.36-4.21-.82-.26-2.18,4-2.18,4-1.65-1.57-4.92.26-4.92.26l.27.81c2.46-1.07,4.37,1.58,4.37,2.89"/><path class="cls-2" d="M1367.88,178.31c0-1.33,2.45-3.7,4.91-2.64l.3-.79s-2.76-2.12-4.93-.55c0,0-.54-4.2-1.39-4.2-.79-.26-2.19,3.94-2.19,3.94-1.61-1.57-4.87.26-4.87.26l.26.8c2.43-1.06,4.61,1.6,4.35,2.9,0,.8,3.56,1.06,3.56.28"/><path class="cls-2" d="M1363.93,100.86c0,.8,3.55.53,3.55-.26-.25-1.31,1.92-3.95,4.38-2.89l.28-.81s-3.29-1.84-4.91-.25c0,0-1.37-4.22-2.18-4-.83,0-1.4,4.21-1.4,4.21-2.16-1.58-4.91.81-4.91.81l.29.51c2.46-1,4.9,1.33,4.9,2.64"/><path class="cls-2" d="M1365.86,102.71c2.73-.27,5.74,3.69,6,9,.27,5-2.21,7.9-4.64,8.16-2.75.27-5.49-2.36-5.75-7.38-.26-5.27,1.91-9.48,4.38-9.74m.49,17.92c-3.11,2.13-9.78,1-9.78,1,.81,5.1,6.76,3.63,9.76,2.56.24,1.78-.17,3.58-2.4,8.27-3.55,6.84-2.71,16.59-.54,20.81l4.37-3.43a20.64,20.64,0,0,1-2.32-8,12.23,12.23,0,0,0,7.81-2,9.74,9.74,0,0,0,4.35-6.59,13.51,13.51,0,0,0-9,1.58,10.83,10.83,0,0,0-2.75,2.56c1.18-4.89,4.31-8.53,3.94-13.46,9.39,2,8.64-4.12,8.64-4.12-2.16.48-6.08,2-9.77.66,6-.92,10.29-5.17,10-9.89-.53-5-6.28-8.69-12.82-8.16-6.58.27-11.49,4.74-11.22,9.75.55,4.7,5.64,8.27,11.71,8.44"/><path class="cls-2" d="M1195.9,175.13l.26-.79s-3.27-1.84-4.91-.27c0,0-1.37-4.2-2.19-3.93-.81,0-1.36,4.2-1.36,4.2-2.19-1.57-4.91.53-4.91.53l.27.8c2.45-1,4.93,1.31,4.93,2.64.26.78,3.52.52,3.52-.28-.26-1.31,1.93-4,4.39-2.9"/><path class="cls-2" d="M1264.37,97.17a3.81,3.81,0,0,1,3.29,4.75h.8s1.92-2.92.29-4.75c0,0,4.35-.79,4.35-1.59s-4.64-1.58-4.64-1.58c1.64-1.84-.55-4.74-.55-4.74l-.82.27c1.37,2.37-1.35,4.47-2.72,4.47-.82,0-.82,3.17,0,3.17"/><path class="cls-2" d="M1185.8,189.89c-.29-5.27,1.63-9.48,4.08-9.75,2.74-.26,5.74,3.69,6,9,.26,5-1.91,7.9-4.65,8.17-2.45.27-5.19-2.38-5.45-7.38m1.63,40.83,4.38-3.41c-6.29-13.07,2.86-17.71,2.07-25.91,9.3,1.94,8.58-4.13,8.58-4.13-2.27.47-6.41,2.11-10.25.47,6.2-.55,10.77-4.86,10.51-9.69-.55-5-6.28-8.7-12.84-8.44-6.56.53-11.46,5-11.2,10,.53,4.8,5.81,8.38,12,8.23-2.94,2.42-10.09,1.25-10.09,1.25.81,5.1,6.77,3.63,9.78,2.56.24,1.78-.2,3.58-2.39,8.26a18.27,18.27,0,0,0-1,2.53,7.11,7.11,0,0,0-2.85-4.63,10.35,10.35,0,0,0-8.18-2.91,7.56,7.56,0,0,0,2.47,7.12,11,11,0,0,0,7.88,2.9c-1.27,6-.55,12.55,1.13,15.79"/><path class="cls-2" d="M1188.14,255.51c.27.54,3.27-1.31,2.72-1.83a3.58,3.58,0,0,1,2.48-5l-.29-.79s-3.54,0-4.37,2.37c0,0-3-3.14-3.83-2.63s1.11,4.48,1.11,4.48c-2.73-.52-4.11,2.91-4.11,2.91l.55.51c1.63-2.37,4.92-1.31,5.74,0"/><path class="cls-2" d="M1370,252.1s1.68-4,1.11-4.49c-.82-.52-3.81,2.63-3.81,2.63-.86-2.37-4.39-2.37-4.39-2.37l-.26.79c2.72.53,3,3.7,2.17,5-.27.54,2.74,2.39,3,1.84.83-1.3,4.1-2.37,5.47,0l.81-.51s-1.4-3.43-4.12-2.9"/><path class="cls-2" d="M1302.6,100.59c-5.17-.27-9.27-2.37-9.53-5,0-2.35,4.36-5,9.8-5,5.2.29,8,2.9,8,5.29.26,2.63-2.75,5-8.22,4.73m42.64,1.86-3.3-4.49a22,22,0,0,1-8.46,1.51,11.2,11.2,0,0,0-1.35-7.57,9.2,9.2,0,0,0-6.55-4.74,10.66,10.66,0,0,0,1.08,8.7,9.5,9.5,0,0,0,2.22,2.81c-4.79-1.51-8.23-4.65-13.12-4.84,2.43-8.76-3.87-8.52-3.87-8.52.27,2,1.69,6.12-.26,9.65-.1-5.92-4.06-10.7-9-10.7-5.45,0-9.81,5-9.81,11.32-.27,6.34,3.82,11.6,9,11.6s9.53-4.69,9.8-10.74c2.24,3,.56,9.69.56,9.69,5-.2,4.11-6.25,3.43-9.1,1.71.06,3.69.69,8.06,3,6.82,4,17,4,21.58,2.39"/><path class="cls-2" d="M1360,189.11c.26-5.28,3.25-9.23,6-9,2.41.27,4.63,4.48,4.34,9.75-.26,5-3,7.64-5.75,7.38-2.43-.27-4.87-3.16-4.61-8.16m20.19,15.8a10.63,10.63,0,0,0-8.44,2.91,8,8,0,0,0-2.75,4.6,22.38,22.38,0,0,0-1.09-2.51c-2.21-4.67-2.66-6.47-2.42-8.25,3,1.08,9,2.55,9.79-2.56,0,0-7.16,1.16-10.1-1.25,6.2.15,11.5-3.43,12-8.22.26-5-4.65-9.49-11.18-10-6.59-.24-12.3,3.43-12.87,8.45-.27,4.83,4.3,9.15,10.51,9.7-3.83,1.62-8,0-9.94-.48,0,0-1,6.1,8.32,4.12-.57,8.22,8.57,12.84,2.06,25.92l4.33,3.41c1.7-3.24,2.58-9.81,1.25-15.77a11.12,11.12,0,0,0,7.78-2.92,8.54,8.54,0,0,0,2.73-7.12"/><path class="cls-2" d="M1364.52,266.58c-3,4.23-6.58,5.27-8.75,3.95-2.44-1.31-3-5,0-9.21s7.39-6.32,9.57-5,2.19,6.06-.82,10.27m1.12-10.81c-5.48-3.42-12.31-2.88-15,1.32-2.91,4.07-1,10.07,4,13.56-3.78.16-8.7-4.6-8.7-4.6-2.46,4.37,3.27,6.64,6.26,7.5-.91,1.62-2.44,2.82-7.08,5.15-7.08,3.43-12.55,11.6-13.65,16.33l5.75-.26a19.8,19.8,0,0,1,3.13-7.58,13.1,13.1,0,0,0,7.25,2.85,10.08,10.08,0,0,0,7.91-2.92,11.82,11.82,0,0,0-8.2-3.67,10.56,10.56,0,0,0-3.63.29c4-3.05,8.6-4.21,11.46-8.33,6.26,6.8,9.38,1.45,9.38,1.45-2-.7-6.25-1.87-8.45-5.29,5.53,3.1,11.62,2.2,14.47-1.82,2.74-4.21.54-10.55-4.9-14"/><path class="cls-2" d="M1200.16,270.53c-2.18,1.32-5.74.28-8.75-4s-3-8.95-.82-10.26,6.56.78,9.57,5c2.73,4.23,2.19,7.9,0,9.21m10.66,8.18c-4.65-2.35-6.16-3.54-7.07-5.16,3-.86,8.71-3.13,6.25-7.5,0,0-5.13,4.95-8.92,4.58,5.25-3.48,7.15-9.47,4.28-13.54s-9.57-4.73-15-1.31-7.67,9.77-4.94,14c2.93,4.11,9.23,5,14.63,1.58-2.15,3.59-6.57,4.8-8.62,5.54,0,0,3.13,5.34,9.42-1.47,2.82,4.13,7.48,5.29,11.4,8.32a10.8,10.8,0,0,0-3.6-.27,11.43,11.43,0,0,0-8.2,3.67,9.69,9.69,0,0,0,7.93,2.91,13.76,13.76,0,0,0,7.22-2.87,20.12,20.12,0,0,1,3.15,7.61l5.74.25c-1.08-4.72-6.56-12.89-13.65-16.31"/><path class="cls-2" d="M1244.7,95.85c0-2.37,2.72-5,7.92-5.27,5.45,0,9.83,2.65,9.83,5-.26,2.64-4.38,4.75-9.56,5-5.47.27-8.48-2.09-8.19-4.74m9,11.33c5.18,0,9.29-5.26,9-11.6,0-6.32-4.38-11.32-9.85-11.32-5,0-8.89,4.79-9,10.72-1.93-3.55-.52-7.72-.26-9.68,0,0-6.28-.22-3.85,8.53-4.92.18-8.33,3.32-13.12,4.85a9.07,9.07,0,0,0,2.2-2.83,10.71,10.71,0,0,0,1.1-8.69,9.17,9.17,0,0,0-6.56,4.73,11.25,11.25,0,0,0-1.36,7.58,22.5,22.5,0,0,1-8.47-1.49l-3.27,4.47c4.64,1.56,14.74,1.56,21.57-2.39,4.34-2.35,6.35-3,8.06-3-.7,2.85-1.6,8.9,3.43,9.09,0,0-1.66-6.66.54-9.68.28,6,4.54,10.74,9.84,10.74"/><path class="cls-2" d="M1273,293.46c-.54,2.63-4.11,4.48-9.29,3.43s-8.74-4.48-8.2-6.86,5.19-3.67,10.66-2.9c5.19,1.07,7.38,4,6.83,6.33m13.39-1c-4.86,1.34-6.86,1.41-8.7.94,1.46-2.63,3.72-8-1.4-9.38,0,0,.22,6.54-2.56,9,.85-5.9-2.1-11.15-7-12.39-5.19-1.06-10.39,3.17-11.75,9.48-1.08,6.06,1.91,11.85,7.1,13.16,5,1,10-2.86,11.34-8.58,1,3.82-1.3,7.46-2.05,9.38,0,0,6.23,1.84,5.67-7.19,5,.94,9.12-1.36,14.14-1.91a10.14,10.14,0,0,0-2.85,2,13.78,13.78,0,0,0-3,8.43A11.11,11.11,0,0,0,1296,295a21.53,21.53,0,0,1,7.89,3.21l4.38-3.68c-4.13-2.64-14.21-4.49-21.86-2.11"/><path class="cls-2" d="M1253.86,287.93c-1.37-.28-3.57-2.9-1.91-5l-.83-.53s-2.72,2.37-1.36,4.73c0,0-4.37,0-4.66.53-.26.8,4.1,2.65,4.1,2.65-2.18,1.58-.8,4.73-.8,4.73h.8c-.55-2.62,2.46-4.24,4.09-3.94.57.26,1.37-2.89.57-3.16"/><path class="cls-4" d="M1732.23,293.55h-18.58V271.14h18.58a11.21,11.21,0,1,1,0,22.41m-18.58-66.07h14.67a11.18,11.18,0,1,1,0,22.36h-14.67Zm51.64,11.18a36.86,36.86,0,0,0-37-36.66h-44.44V319h48.35a36.57,36.57,0,0,0,27.48-61.13,35.82,35.82,0,0,0,5.58-19.25"/><path class="cls-4" d="M1833,290.45c-15,0-27.3-13.16-27.3-29.44s12.25-29.37,27.3-29.37,27.3,13.17,27.3,29.37S1848,290.45,1833,290.45m0-90.61c-32.6,0-59.12,27.47-59.12,61.17s26.52,61.23,59.12,61.23,59.1-27.41,59.1-61.23-26.5-61.17-59.1-61.17"/><path class="cls-4" d="M1964.78,279h13.87v6.41a33.08,33.08,0,0,1-17.43,5c-17.27,0-31.31-13.16-31.31-29.43s14-29.38,31.31-29.38A32.15,32.15,0,0,1,1983,240l3.09,2.84,21.47-23.47-3.07-2.82a63.82,63.82,0,0,0-43.29-16.69c-34.79,0-63.11,27.47-63.11,61.17s28.32,61.23,63.11,61.23a64.35,64.35,0,0,0,17.43-2.38v.25h31.81V247.28h-45.68Z"/><polygon class="cls-4" points="2173.66 236.38 2173.66 320.11 2211.37 320.11 2211.37 236.38 2246.97 236.38 2246.97 200.39 2137.91 200.39 2137.91 236.38 2173.66 236.38"/><polygon class="cls-4" points="2414 370.25 2341.82 178.31 2277.03 178.31 2223.98 319.87 2263.27 319.87 2309.34 203.42 2374.72 370.25 2414 370.25"/><path class="cls-4" d="M2076.65,290.45c-15.06,0-27.29-13.17-27.29-29.44s12.23-29.36,27.29-29.36S2104,244.82,2104,261s-12.28,29.44-27.31,29.44m52.1-58.27-.06-.14c-10-19.11-29.56-32.2-52-32.2-32.6,0-59.1,27.46-59.1,61.17s26.5,61.23,59.1,61.23,59.11-27.41,59.11-61.23a62.32,62.32,0,0,0-7-28.83"/><polygon class="cls-5" points="2358.33 116.13 2393.72 101.63 2346.62 84.79 2316.47 4.09 2285.18 63.52 2221.34 50.41 2266.4 99.17 2244.42 158.24 2323.71 129.76 2381.57 178.32 2358.33 116.13"/><polygon class="cls-5" points="2226.4 119.31 2240.91 109.99 2223.55 106.31 2218.56 89.02 2211.66 103.75 2185.37 98.18 2205.92 119.38 2199.62 136.5 2218.09 124.63 2232.38 136.19 2226.4 119.31"/><polygon class="cls-5" points="2383.01 31.65 2398.16 21.92 2380.03 18.08 2374.83 0 2366.05 15.08 2340.18 9.58 2361.63 31.72 2355.05 49.59 2374.34 37.2 2389.26 49.27 2383.01 31.65"/><rect x="1566.19" y="66.71" width="6.11" height="359.05"/><path class="cls-6" d="M665.36,107.18c0-22.86-18.41-41.56-40.91-41.56H224.74a50.73,50.73,0,0,0-16.55,2.69,44.8,44.8,0,0,0-14.63,8.29A41.44,41.44,0,0,0,179,108.52a39,39,0,0,0,3.11,15.65,40.62,40.62,0,0,0,4.7,8.13l-6,8.8a20.12,20.12,0,0,0-2.31,18.07,19.85,19.85,0,0,0-6,5.66,56.38,56.38,0,0,0-10.07-4.75,67.67,67.67,0,0,0-22.79-3.72H112.53A19.72,19.72,0,0,0,93,176.24v72a19.73,19.73,0,0,0-10.77,9.11,55.7,55.7,0,0,0-12.72-6.45,67.63,67.63,0,0,0-22.79-3.72H19.57A19.73,19.73,0,0,0,0,267v77.59a19.73,19.73,0,0,0,19.57,19.88H606.92a58.4,58.4,0,0,0,23-4.57,56.79,56.79,0,0,0,18.6-12.71,58.24,58.24,0,0,0,12.2-18.87,61,61,0,0,0,4.37-23C665.12,301.44,665.36,107.18,665.36,107.18Z"/><path class="cls-7" d="M206.47,138.42a33.76,33.76,0,0,0,5.35,3.9c.81.48,1.68,1,2.63,1.43a22.49,22.49,0,0,0,3,1.26,25.2,25.2,0,0,0,3.26.87,17.58,17.58,0,0,0,3.43.33,13.26,13.26,0,0,0,2.8-.3,8.14,8.14,0,0,0,2.5-1,5.37,5.37,0,0,0,1.79-1.85,5.57,5.57,0,0,0,.68-2.85,3.86,3.86,0,0,0-1.44-3,18.33,18.33,0,0,0-3.78-2.49c-1.57-.8-3.34-1.61-5.33-2.41s-4-1.69-6.11-2.67a54.87,54.87,0,0,1-6.1-3.33,26.66,26.66,0,0,1-5.33-4.38,20.59,20.59,0,0,1-3.79-5.82,19.14,19.14,0,0,1-1.43-7.62,21.35,21.35,0,0,1,7.57-16.72,25,25,0,0,1,8.3-4.66,31.19,31.19,0,0,1,10.27-1.65,41.34,41.34,0,0,1,5.61.36,36.91,36.91,0,0,1,4.84,1,36.21,36.21,0,0,1,4.09,1.38c1.25.52,2.36,1,3.33,1.54A26.86,26.86,0,0,1,248.52,94l-7.62,15a30.55,30.55,0,0,0-4.85-3.28,37.25,37.25,0,0,0-5.22-2.28,18.66,18.66,0,0,0-6.29-1,12.11,12.11,0,0,0-2.77.33,7.86,7.86,0,0,0-2.53,1,6.07,6.07,0,0,0-1.82,1.82,4.93,4.93,0,0,0-.7,2.7,4.06,4.06,0,0,0,1.44,3.1,16.54,16.54,0,0,0,3.76,2.46,55.83,55.83,0,0,0,5.32,2.28q3,1.13,6.11,2.54a60.49,60.49,0,0,1,6.11,3.21,23.86,23.86,0,0,1,5.32,4.28,20.16,20.16,0,0,1,3.76,5.82A19.51,19.51,0,0,1,250,139.8a23.64,23.64,0,0,1-1.71,8.95,21.21,21.21,0,0,1-5.05,7.41,24.68,24.68,0,0,1-8.18,5.08,30.38,30.38,0,0,1-11.1,1.9,39.86,39.86,0,0,1-6.16-.46,42.93,42.93,0,0,1-5.4-1.21,36.46,36.46,0,0,1-4.65-1.69,34.94,34.94,0,0,1-3.83-2,31.86,31.86,0,0,1-7-5.38Z"/><path class="cls-7" d="M259.81,85.49h18.36v77.65H259.81Z"/><path class="cls-7" d="M297,138.42a33.76,33.76,0,0,0,5.35,3.9c.81.48,1.68,1,2.62,1.43a23.2,23.2,0,0,0,3,1.26,25.49,25.49,0,0,0,3.25.87,17.68,17.68,0,0,0,3.44.33,13.26,13.26,0,0,0,2.8-.3,8.14,8.14,0,0,0,2.5-1,5.47,5.47,0,0,0,1.79-1.85,5.57,5.57,0,0,0,.68-2.85,3.86,3.86,0,0,0-1.44-3,18.15,18.15,0,0,0-3.79-2.49c-1.56-.8-3.34-1.61-5.32-2.41s-4-1.69-6.11-2.67a55,55,0,0,1-6.11-3.33,26.88,26.88,0,0,1-5.32-4.38,20.37,20.37,0,0,1-3.79-5.82,19,19,0,0,1-1.44-7.62,21.41,21.41,0,0,1,7.58-16.72,25,25,0,0,1,8.3-4.66,31.19,31.19,0,0,1,10.27-1.65,41.19,41.19,0,0,1,5.6.36,36.78,36.78,0,0,1,8.94,2.36c1.24.52,2.35,1,3.33,1.54A26.86,26.86,0,0,1,339.06,94l-7.63,15a30.46,30.46,0,0,0-4.84-3.28,37.41,37.41,0,0,0-5.23-2.28,18.56,18.56,0,0,0-6.28-1,12.19,12.19,0,0,0-2.78.33,7.89,7.89,0,0,0-2.52,1,6.07,6.07,0,0,0-1.82,1.82,4.93,4.93,0,0,0-.7,2.7,4,4,0,0,0,1.43,3.1,16.76,16.76,0,0,0,3.76,2.46,57.22,57.22,0,0,0,5.33,2.28q3,1.13,6.11,2.54a61.57,61.57,0,0,1,6.11,3.21,24.09,24.09,0,0,1,5.32,4.28,20.16,20.16,0,0,1,3.76,5.82,19.51,19.51,0,0,1,1.44,7.79,23.46,23.46,0,0,1-1.72,8.95,21,21,0,0,1-5,7.41,24.68,24.68,0,0,1-8.18,5.08,30.4,30.4,0,0,1-11.11,1.9,39.73,39.73,0,0,1-6.15-.46,43.49,43.49,0,0,1-5.41-1.21,36.54,36.54,0,0,1-8.48-3.67,32,32,0,0,1-7-5.38Z"/><path class="cls-7" d="M373,101.78H349.77V85.49h65.1v16.29H391.69v61.36H373Z"/><path class="cls-7" d="M424.14,85.49h47.92v16.29H442.82v14.1h23.34v16.28H442.82v14.69h30.7v16.29H424.14Z"/><path class="cls-7" d="M487.66,85.49H508l11.12,32.78c.42,1.24.85,2.6,1.3,4.08s.87,2.88,1.26,4.19c.41,1.52.85,3,1.3,4.56h.21c.42-1.52.83-3,1.25-4.56.38-1.31.8-2.7,1.25-4.19s.89-2.84,1.31-4.08l11.12-32.78h20.36l6.16,77.65H545.92l-2.35-34.95c-.1-1.49-.17-3-.18-4.54s0-2.94,0-4.21c0-1.49.09-2.92.16-4.3h-.21c-.52,1.56-1,3.11-1.51,4.67-.42,1.34-.88,2.76-1.39,4.27s-1,2.87-1.38,4.11l-8,22.43H515l-8-22.43-1.39-4.11c-.5-1.51-1-2.93-1.38-4.27l-1.46-4.67h-.26c.07,1.38.12,2.81.15,4.3,0,1.27.05,2.67,0,4.21s-.08,3-.18,4.54l-2.35,34.95H481.35Z"/><path class="cls-7" d="M621.59,146.85h-23.8l-4.65,16.29H573.93l25.94-77.65h19.69l26,77.65H626.29Zm-12-43.64c-.32,1.62-.66,3.23-1,4.82-.31,1.35-.65,2.79-1,4.33s-.72,2.92-1.07,4.16l-4.38,15.11h15.09l-4.28-15.11c-.35-1.24-.71-2.63-1.07-4.16s-.69-3-1-4.33c-.38-1.59-.73-3.2-1-4.82Z"/><path class="cls-7" d="M19.57,267H46.69A48.07,48.07,0,0,1,63,269.64a34,34,0,0,1,12.41,7.55,33.35,33.35,0,0,1,7.93,12.13,49.48,49.48,0,0,1,0,32.76,33.79,33.79,0,0,1-7.93,12.24A34.21,34.21,0,0,1,63,342a47.33,47.33,0,0,1-16.31,2.65H19.57ZM46,328.36a24.39,24.39,0,0,0,8.72-1.46,17.09,17.09,0,0,0,6.54-4.32,19,19,0,0,0,4.12-7.1,30.41,30.41,0,0,0,1.44-9.8,29.23,29.23,0,0,0-1.49-9.76,19,19,0,0,0-4.2-7,17.29,17.29,0,0,0-6.54-4.22,25,25,0,0,0-8.59-1.4H38.24v45.05Z"/><path class="cls-7" d="M99.28,267h47.89v16.27H118v14.1h23.32v16.27H118v14.68h30.67v16.27H99.28Z"/><path class="cls-7" d="M244.46,267.06h18.36v48.19a14.23,14.23,0,0,0,.92,5.31,10.53,10.53,0,0,0,2.62,3.86,10.9,10.9,0,0,0,4.1,2.34,19,19,0,0,0,10.77,0,10.9,10.9,0,0,0,4.1-2.34,10.53,10.53,0,0,0,2.62-3.86,14.23,14.23,0,0,0,.92-5.31V267.06h18.36v48.19A30.62,30.62,0,0,1,305,327.1a27,27,0,0,1-6.31,9.3,28.36,28.36,0,0,1-9.87,6.07A36.58,36.58,0,0,1,276,344.63a37.12,37.12,0,0,1-13-2.16A28.49,28.49,0,0,1,253,336.4a26.75,26.75,0,0,1-6.34-9.3,30.8,30.8,0,0,1-2.23-11.85Z"/><path class="cls-7" d="M316.67,267h18.69v77.64H316.67Z"/><path class="cls-7" d="M344.72,267h27.14a48.42,48.42,0,0,1,16.32,2.6,34.13,34.13,0,0,1,12.42,7.56,33.3,33.3,0,0,1,7.93,12.14,49.37,49.37,0,0,1,0,32.78,33.83,33.83,0,0,1-7.93,12.25A34.47,34.47,0,0,1,388.18,342a47.43,47.43,0,0,1-16.32,2.65H344.72Zm26.41,61.36a24.39,24.39,0,0,0,8.72-1.46,17.13,17.13,0,0,0,6.55-4.32,19.15,19.15,0,0,0,4.12-7.11,30.48,30.48,0,0,0,1.44-9.81,29.23,29.23,0,0,0-1.49-9.76,19.16,19.16,0,0,0-4.2-7,17.12,17.12,0,0,0-6.55-4.21,24.77,24.77,0,0,0-8.59-1.41H363.4v45.08Z"/><path class="cls-7" d="M459.06,328.35h-23.8l-4.65,16.28H411.4L437.34,267H457l26,77.64H463.76ZM447.11,284.7q-.48,2.44-1.05,4.83-.46,2-1,4.32c-.36,1.54-.72,2.93-1.07,4.16l-4.38,15.12h15.09L450.4,298c-.35-1.23-.71-2.62-1.07-4.16s-.69-3-1-4.32q-.57-2.38-1.05-4.83Z"/><path class="cls-7" d="M492.31,267h27.15a48.32,48.32,0,0,1,16.31,2.6,34.09,34.09,0,0,1,12.43,7.56,33.43,33.43,0,0,1,7.93,12.14,49.54,49.54,0,0,1,0,32.78,34,34,0,0,1-7.93,12.25A34.43,34.43,0,0,1,535.77,342a47.33,47.33,0,0,1-16.31,2.65H492.31Zm26.42,61.36a24.39,24.39,0,0,0,8.72-1.46,17.13,17.13,0,0,0,6.55-4.32,19.28,19.28,0,0,0,4.12-7.11,30.48,30.48,0,0,0,1.44-9.81,29.23,29.23,0,0,0-1.49-9.76,19.16,19.16,0,0,0-4.2-7,17.19,17.19,0,0,0-6.55-4.21,24.77,24.77,0,0,0-8.59-1.41H511v45.08Z"/><path class="cls-7" d="M568.29,305.38a39.54,39.54,0,0,1,1.31-10.29,38.93,38.93,0,0,1,3.73-9.2,36.11,36.11,0,0,1,5.88-7.74,37.41,37.41,0,0,1,7.76-5.94,38.36,38.36,0,0,1,9.33-3.82,42.95,42.95,0,0,1,21.21,0,37.41,37.41,0,0,1,17.07,9.76,36.53,36.53,0,0,1,5.9,7.74,38.17,38.17,0,0,1,3.76,9.2,40,40,0,0,1,1.31,10.29,40.85,40.85,0,0,1-2.9,15.43,38.22,38.22,0,0,1-8,12.47,37.18,37.18,0,0,1-12.23,8.33,41.08,41.08,0,0,1-30.92,0,37.18,37.18,0,0,1-12.23-8.33,38.22,38.22,0,0,1-8-12.47A40.66,40.66,0,0,1,568.29,305.38Zm18.66,0a24.87,24.87,0,0,0,1.56,8.89,22.36,22.36,0,0,0,4.26,7.13,19.92,19.92,0,0,0,6.33,4.71,18.52,18.52,0,0,0,15.59,0A19.92,19.92,0,0,0,621,321.4a22.54,22.54,0,0,0,4.26-7.13,24.87,24.87,0,0,0,1.56-8.89,23,23,0,0,0-1.56-8.55A21.47,21.47,0,0,0,621,290a19.94,19.94,0,0,0-6.33-4.51,19.34,19.34,0,0,0-15.59,0,19.94,19.94,0,0,0-6.33,4.51,21.3,21.3,0,0,0-4.26,6.82A23,23,0,0,0,587,305.38Z"/><path class="cls-7" d="M225.35,320l0,0c-1-1-2.47-2.34-4.26-.87l-2.81,2c-6,5-14,6.74-22.73,1.55-7.15-4.24-11-13.23-8.59-22.75,3.18-10.94,13-18.16,25.29-13.57a1.91,1.91,0,0,0,2-.6,10.15,10.15,0,0,1,1-.87c.7-.58,1-1,1.7-1.64,1.06-1,.34-2.28-1-2.84a26.31,26.31,0,0,0-28.71,6.15,27.37,27.37,0,0,0-3,34.19,26.42,26.42,0,0,0,37.39,6.83,3.64,3.64,0,0,1,2-1c1.6,0,2.66,2.31,1.38,3.28a34.6,34.6,0,0,1-9.67,5.19c-1.35.41-3.92,0-5.28.25-1.56.3-3.63,1.83-5.23,1.82a29.67,29.67,0,0,1-22.21-10.25,32.55,32.55,0,0,1,2.63-45.42,30.25,30.25,0,0,1,7.64-5c1.56-.71,4.8.25,6.37-.27,2.64-.86,3.52-2.15,5.11-2.42,7.75-1.29,14.72,1.59,20.09,6.23a1.65,1.65,0,0,1-.17,2.51l-.74.74c-3.11,3-4.59,3.64-7.61,6.7-1.13,1.15-1.43,2.15-2.89,1.38a16.39,16.39,0,0,0-21.12,7c-3.26,6-1.31,14.68,3.83,19A15.28,15.28,0,0,0,209,320a17.5,17.5,0,0,0,9.11-4.85,1.41,1.41,0,0,0,0-2l-1.44-1.34a2.7,2.7,0,0,0-3.5-.14,10.67,10.67,0,0,1-1.13.81,15,15,0,0,1-3.18,1.45,8.74,8.74,0,0,1-10.58-4.65,9,9,0,0,1,3.2-11.38c3.49-2.33,8.55-1.85,12.63,1.31.85.66,1.35.66,2.13-.07,3.43-3.23,6.91-6.39,10.37-9.58l8.12-7.51a1.85,1.85,0,0,0,.16-2.54c-6.75-7.89-15.44-12.69-26.54-12.86-2.68,0-5.3,1.5-8,2.75-5.87-20.43,9.1-35.15-.53-35.13-2.18,1.06-2.78,3.89-3.55,5.6a67.94,67.94,0,0,0-3.33,15.21c-.16-.36-.31-.72-.48-1.08a44.25,44.25,0,0,0-3.56-6.24,36.67,36.67,0,0,0-10.21-9.81,35.9,35.9,0,0,0-15.43-5.76,55.79,55.79,0,0,0-13,.14l-1.62.17a1.24,1.24,0,0,0-1,1.6c.71,2.24,1.38,4.49,2.2,6.68a39,39,0,0,0,3.27,7,23.59,23.59,0,0,0,8.42,8.16,34.24,34.24,0,0,0,13.88,4.26c3.37.36,6.75.55,10.1,1.06a36.85,36.85,0,0,1,7.55,2,59.5,59.5,0,0,0,1.37,7.63c-2.52.05-5.46-.15-7.08.72-11.9,6.41-19.07,18.29-19.59,32.2A39.16,39.16,0,0,0,193,342.13a33.94,33.94,0,0,0,11.53,2.42c2.21.06,4.64-2.27,6.81-2.59,2.6-.39,6.73.65,9.2-.26a32.86,32.86,0,0,0,13.76-9.6,2.79,2.79,0,0,0-.14-3.89Z"/><path class="cls-8" d="M225.92,229.16a33.76,33.76,0,0,0,5.35,3.9c.81.48,1.68,1,2.63,1.44a22.46,22.46,0,0,0,3,1.25,27.46,27.46,0,0,0,3.26.88,17.58,17.58,0,0,0,3.43.33,12.65,12.65,0,0,0,2.8-.31,7.8,7.8,0,0,0,2.5-1,5.34,5.34,0,0,0,1.79-1.84,5.47,5.47,0,0,0,.68-2.85,3.9,3.9,0,0,0-1.44-3,18.05,18.05,0,0,0-3.78-2.48c-1.57-.81-3.34-1.61-5.33-2.41s-4-1.7-6.11-2.67a54.87,54.87,0,0,1-6.1-3.33,26.65,26.65,0,0,1-5.33-4.39,20.07,20.07,0,0,1-3.78-5.82,18.89,18.89,0,0,1-1.44-7.61,21.4,21.4,0,0,1,7.57-16.72,25.23,25.23,0,0,1,8.3-4.67,31.5,31.5,0,0,1,10.27-1.64,41.34,41.34,0,0,1,5.61.36,37,37,0,0,1,4.84,1,34.29,34.29,0,0,1,4.09,1.39,35.37,35.37,0,0,1,3.33,1.54,26.6,26.6,0,0,1,5.91,4.25l-7.62,15a29.89,29.89,0,0,0-4.85-3.28,37.89,37.89,0,0,0-5.22-2.29,18.66,18.66,0,0,0-6.29-1.05,11.6,11.6,0,0,0-2.77.34,7.86,7.86,0,0,0-2.53,1.05,5.93,5.93,0,0,0-1.81,1.82,4.8,4.8,0,0,0-.71,2.69,4,4,0,0,0,1.44,3.1,16.21,16.21,0,0,0,3.76,2.46,56.85,56.85,0,0,0,5.32,2.29c2,.75,4,1.6,6.11,2.54a60.39,60.39,0,0,1,6.11,3.2,24.15,24.15,0,0,1,5.32,4.28,20.19,20.19,0,0,1,3.77,5.82,19.74,19.74,0,0,1,1.43,7.8,23.68,23.68,0,0,1-1.71,8.95,21.21,21.21,0,0,1-5.05,7.41,24.84,24.84,0,0,1-8.18,5.08,30.38,30.38,0,0,1-11.1,1.89,38.66,38.66,0,0,1-6.16-.46,44.79,44.79,0,0,1-5.4-1.2,37.18,37.18,0,0,1-8.48-3.67,31.89,31.89,0,0,1-7-5.39Z"/><path class="cls-8" d="M302,192.52H278.73V176.24h65.1v16.28H320.65v61.36H302Z"/><path class="cls-8" d="M353.24,176.24h26.62c1.95,0,3.67,0,5.15.11s2.8.17,4,.31a28,28,0,0,1,3.14.56,21.63,21.63,0,0,1,8.48,4.19,20.44,20.44,0,0,1,4.44,5,24.23,24.23,0,0,1,2.82,6.44,29.34,29.34,0,0,1,1,7.83,27.77,27.77,0,0,1-.73,6.25,26.47,26.47,0,0,1-2.17,6,22.84,22.84,0,0,1-3.58,5.17,18,18,0,0,1-5,3.82v.21l.74,1.12c.24.38.53.87.88,1.45l1.26,2.1,14.87,27.15H394.27l-13.57-26.2h-8.77v26.2H353.24Zm26.83,35.16A10,10,0,0,0,387.2,209q2.58-2.43,2.58-7.1a14.83,14.83,0,0,0-.47-4,6,6,0,0,0-1.77-2.91,8.63,8.63,0,0,0-3.55-1.83,21.29,21.29,0,0,0-5.74-.64h-6.32V211.4Z"/><path class="cls-8" d="M424.63,176.24h18.69v77.64H424.63Z"/><path class="cls-8" d="M475.72,192.52H452.49V176.24h65.1v16.28H494.41v61.36H475.72Z"/><path class="cls-8" d="M562.39,237.6h-23.8l-4.65,16.28H514.73l25.94-77.64h19.68l26,77.64H567.09ZM550.44,194q-.48,2.45-1.05,4.83-.46,2-1,4.32c-.36,1.54-.72,2.93-1.07,4.16l-4.38,15.12H558l-4.28-15.12c-.34-1.23-.7-2.62-1.07-4.16s-.68-3-1-4.32q-.57-2.39-1.05-4.83Z"/><path class="cls-8" d="M595.65,176.24h18.68V237.6h31.22v16.28h-49.9Z"/><path class="cls-8" d="M145.23,252.74a49.64,49.64,0,0,1-4.08-8.64c-.77-2.07-1.4-4.09-2-6l-.14-.46h-7.78V192.52H139a24.81,24.81,0,0,1,8.59,1.41,17.19,17.19,0,0,1,6.55,4.21,19.16,19.16,0,0,1,4.2,7,29.23,29.23,0,0,1,1.49,9.76,33.43,33.43,0,0,1-.8,7.57c1.84,0,3.61.16,5.34.37a44,44,0,0,1,13.46,3.92,48.81,48.81,0,0,0,1.36-11.86,45,45,0,0,0-2.79-16.36,33.43,33.43,0,0,0-7.93-12.14A34.09,34.09,0,0,0,156,178.84a48.32,48.32,0,0,0-16.31-2.6H112.53v77.64h27.15a54.37,54.37,0,0,0,6.08-.34C145.59,253.27,145.4,253,145.23,252.74Z"/><path class="cls-8" d="M188.67,233.79a15,15,0,0,1,7.09-8,9,9,0,0,1,4-.94,13.38,13.38,0,0,1,7.2,1.91V176.24h-18.4V233.7Z"/><path class="cls-9" d="M26.74,384.43,613,384.38c6.81,0,15.23,5.61,18.79,12.54L644,420.65c3.43,6.67.88,12.08-5.68,12.09l-586.27,0c-6.82,0-15.23-5.61-18.8-12.54l-12.2-23.73C17.63,389.84,20.17,384.43,26.74,384.43Z"/><path class="cls-7" d="M50.49,417.55V396.06H42.27v-4h21v4H55.05v21.49Z"/><path class="cls-7" d="M65.88,396.13v-4.05h4.45v4.05Zm0,21.42v-18.3h4.49v18.3Z"/><path class="cls-7" d="M74,408.4a9.54,9.54,0,0,1,2.56-6.9,8.73,8.73,0,0,1,6.58-2.68,7.31,7.31,0,0,1,5.88,2.46,9.24,9.24,0,0,1,2.1,6.22l-.1,1.76H78.63a5,5,0,0,0,1.75,3.57A5.52,5.52,0,0,0,84,414.1a7,7,0,0,0,2.58-.5,8.26,8.26,0,0,0,2-1l.64-.5L91,415.36l-.32.29a8.28,8.28,0,0,1-.93.62,12,12,0,0,1-1.5.79,11.62,11.62,0,0,1-2,.63,10.87,10.87,0,0,1-2.49.29,9.26,9.26,0,0,1-7-2.78A9.46,9.46,0,0,1,74,408.4Zm4.73-2.26h7.87a3.9,3.9,0,0,0-1-2.8,3.41,3.41,0,0,0-2.52-1,4.12,4.12,0,0,0-2.86,1A4.68,4.68,0,0,0,78.77,406.14Z"/><path class="cls-7" d="M94.87,417.55v-18.3h4.31v2.12l-.08,1.26h.08a7.23,7.23,0,0,1,2.31-2.66,5.89,5.89,0,0,1,3.55-1.15,5,5,0,0,1,5.26,3.77h.07a7,7,0,0,1,6.14-3.77q5.89,0,5.9,7v11.77h-4.49V406.64a5.79,5.79,0,0,0-.51-2.72,2,2,0,0,0-2-.93,3.71,3.71,0,0,0-2.79,1.16,6.24,6.24,0,0,0-1.55,3,10.39,10.39,0,0,0-.21,2.36v8h-4.49V406.64a5.94,5.94,0,0,0-.49-2.7A2,2,0,0,0,104,403a3.77,3.77,0,0,0-2.81,1.16,6.41,6.41,0,0,0-1.61,3,10,10,0,0,0-.21,2.33v8Z"/><path class="cls-7" d="M127.1,424.72V399.25h4.1v1.33l-.07,1.26h.07c0-.07.11-.18.19-.33a5.26,5.26,0,0,1,.62-.73,6.4,6.4,0,0,1,1.09-.92,6.57,6.57,0,0,1,1.64-.71,7.46,7.46,0,0,1,2.25-.33,7.1,7.1,0,0,1,5.8,2.66A10.57,10.57,0,0,1,145,408.4a10.15,10.15,0,0,1-2.31,6.94,7.5,7.5,0,0,1-5.91,2.64,7.31,7.31,0,0,1-1.89-.25,5.32,5.32,0,0,1-1.47-.63,10.84,10.84,0,0,1-1-.75,3.91,3.91,0,0,1-.62-.63l-.18-.25h-.07a14.07,14.07,0,0,1,.07,1.58v7.67Zm4.34-16.21a6.65,6.65,0,0,0,1.19,4,3.8,3.8,0,0,0,3.3,1.67,4.08,4.08,0,0,0,3.23-1.52,6.23,6.23,0,0,0,1.29-4.15,6.58,6.58,0,0,0-1.24-4.16,3.93,3.93,0,0,0-3.25-1.58,4.15,4.15,0,0,0-3.21,1.46A6.27,6.27,0,0,0,131.44,408.51Z"/><path class="cls-7" d="M150.19,415.27a9.68,9.68,0,0,1,0-13.74,10.49,10.49,0,0,1,14.07,0,9.68,9.68,0,0,1,0,13.74,10.51,10.51,0,0,1-14.09,0Zm1.69-6.87a5.64,5.64,0,0,0,1.56,4.11,5.32,5.32,0,0,0,7.59,0,6.2,6.2,0,0,0,0-8.2,5.08,5.08,0,0,0-3.78-1.61,5.14,5.14,0,0,0-3.8,1.61A5.66,5.66,0,0,0,151.88,408.4Z"/><path class="cls-7" d="M176.88,423.9l1.48-3.41a3.17,3.17,0,0,0,5.12-1.62l.67-1.61-7.59-18h5.05l3.78,10.55.67,2.47h.07a22,22,0,0,1,.6-2.4l3.53-10.62h4.91l-8,21.06a7.49,7.49,0,0,1-2.63,3.59,6.72,6.72,0,0,1-3.87,1.18,6.52,6.52,0,0,1-1.89-.29,6.08,6.08,0,0,1-1.39-.57Z"/><path class="cls-7" d="M204.77,415.29l2-3.19c.14.14.34.32.61.55a7.7,7.7,0,0,0,1.7.9,6.49,6.49,0,0,0,2.59.55,3.09,3.09,0,0,0,1.68-.43,1.35,1.35,0,0,0,.69-1.22,1.62,1.62,0,0,0-.9-1.3,11.74,11.74,0,0,0-2.19-1.1,26.6,26.6,0,0,1-2.58-1.16,6.49,6.49,0,0,1-2.19-1.85,4.57,4.57,0,0,1-.9-2.84,4.65,4.65,0,0,1,1.94-3.92,8.05,8.05,0,0,1,4.95-1.46,10.41,10.41,0,0,1,3.32.52,6.44,6.44,0,0,1,2.11,1.06l.6.5-1.65,3.38a6.22,6.22,0,0,0-.53-.45,7.2,7.2,0,0,0-1.5-.7,6.7,6.7,0,0,0-2.39-.43,3.09,3.09,0,0,0-1.62.41,1.36,1.36,0,0,0-.67,1.24,1.54,1.54,0,0,0,.9,1.24,13.21,13.21,0,0,0,2.19,1.05c.86.34,1.71.72,2.57,1.15a6.17,6.17,0,0,1,2.19,1.85,4.62,4.62,0,0,1,.9,2.85,4.89,4.89,0,0,1-1.87,3.93,7.58,7.58,0,0,1-5,1.56,10.28,10.28,0,0,1-3.73-.67,8.65,8.65,0,0,1-2.52-1.34Z"/><path class="cls-7" d="M221,408.4a9.59,9.59,0,0,1,2.56-6.9,8.73,8.73,0,0,1,6.59-2.68,7.31,7.31,0,0,1,5.87,2.46,9.24,9.24,0,0,1,2.11,6.22l-.11,1.76H225.56a5,5,0,0,0,1.75,3.57A5.52,5.52,0,0,0,231,414.1a7,7,0,0,0,2.58-.5,8.56,8.56,0,0,0,2-1l.63-.5,1.73,3.26c-.07.07-.17.17-.31.29a10,10,0,0,1-.94.62,10.73,10.73,0,0,1-1.5.79,11.48,11.48,0,0,1-2,.63,11,11,0,0,1-2.49.29,9.28,9.28,0,0,1-7-2.78A9.46,9.46,0,0,1,221,408.4Zm4.73-2.26h7.88a3.9,3.9,0,0,0-1.05-2.8,3.41,3.41,0,0,0-2.52-1,4.14,4.14,0,0,0-2.86,1A4.79,4.79,0,0,0,225.7,406.14Z"/><path class="cls-7" d="M241.8,417.55v-18.3h4.31v3.16L246,403.7h.07a7.2,7.2,0,0,1,2.17-3.37,5.29,5.29,0,0,1,3.55-1.33l.81.08v4.48a6.72,6.72,0,0,0-1.06-.07,5,5,0,0,0-3,1,5.38,5.38,0,0,0-2,2.86,10,10,0,0,0-.38,3v7.25Z"/><path class="cls-7" d="M260.19,417.55l-6.53-18.3h4.73l3.75,11.34c.09.31.19.7.3,1.16s.19.85.26,1.13l.07.47h.07l.07-.47c.07-.28.16-.66.27-1.13s.2-.85.3-1.16l3.74-11.34H272l-6.46,18.3Z"/><path class="cls-7" d="M274.46,396.13v-4.05h4.45v4.05Zm0,21.42v-18.3h4.48v18.3Z"/><path class="cls-7" d="M282.58,408.4a9.37,9.37,0,0,1,9.78-9.58,10.21,10.21,0,0,1,3.81.69,7.22,7.22,0,0,1,2.4,1.36l.71.68-2,3.12q-.21-.21-.6-.54a9.29,9.29,0,0,0-1.61-.88,5.93,5.93,0,0,0-2.49-.55,5.14,5.14,0,0,0-4,1.63,5.71,5.71,0,0,0-1.52,4,5.8,5.8,0,0,0,1.55,4.08,5.3,5.3,0,0,0,4.06,1.66,6.68,6.68,0,0,0,2.67-.57,7.31,7.31,0,0,0,2-1.15l.67-.61,1.73,3.23-.3.32a5.81,5.81,0,0,1-.9.72,11.24,11.24,0,0,1-1.5.9,11.9,11.9,0,0,1-4.71,1,9.49,9.49,0,0,1-7.08-2.75A9.34,9.34,0,0,1,282.58,408.4Z"/><path class="cls-7" d="M303.12,396.13v-4.05h4.45v4.05Zm0,21.42v-18.3h4.49v18.3Z"/><path class="cls-7" d="M314.07,415.27a9.68,9.68,0,0,1,0-13.74,10.49,10.49,0,0,1,14.07,0,9.67,9.67,0,0,1,0,13.74,10.5,10.5,0,0,1-14.08,0Zm1.69-6.87a5.64,5.64,0,0,0,1.56,4.11,5.32,5.32,0,0,0,7.59,0,6.2,6.2,0,0,0,0-8.2,5.08,5.08,0,0,0-3.78-1.61,5.14,5.14,0,0,0-3.8,1.61A5.66,5.66,0,0,0,315.76,408.4Z"/><path class="cls-7" d="M333.1,415.29l2-3.19c.14.14.35.32.62.55a7.7,7.7,0,0,0,1.7.9,6.49,6.49,0,0,0,2.59.55,3.09,3.09,0,0,0,1.68-.43,1.35,1.35,0,0,0,.69-1.22,1.62,1.62,0,0,0-.9-1.3,11.74,11.74,0,0,0-2.19-1.1,26.6,26.6,0,0,1-2.58-1.16,6.49,6.49,0,0,1-2.19-1.85,4.57,4.57,0,0,1-.9-2.84,4.65,4.65,0,0,1,1.94-3.92,8,8,0,0,1,4.95-1.46,10.3,10.3,0,0,1,3.31.52A6.4,6.4,0,0,1,346,400.4l.6.5-1.66,3.38a4.11,4.11,0,0,0-.53-.45,7.92,7.92,0,0,0-3.88-1.13,3,3,0,0,0-1.62.41,1.36,1.36,0,0,0-.67,1.24,1.54,1.54,0,0,0,.9,1.24,13.08,13.08,0,0,0,2.18,1.05c.86.34,1.72.72,2.58,1.15a6.17,6.17,0,0,1,2.19,1.85,4.62,4.62,0,0,1,.9,2.85,4.89,4.89,0,0,1-1.87,3.93,7.58,7.58,0,0,1-5,1.56,10.28,10.28,0,0,1-3.73-.67,8.65,8.65,0,0,1-2.52-1.34Z"/><path class="cls-7" d="M359.15,424.72V399.25h4.1v1.33l-.07,1.26h.07c0-.07.11-.18.19-.33a5.26,5.26,0,0,1,.62-.73,6.4,6.4,0,0,1,1.09-.92,6.57,6.57,0,0,1,1.64-.71,7.42,7.42,0,0,1,2.25-.33,7.1,7.1,0,0,1,5.8,2.66A10.57,10.57,0,0,1,377,408.4a10.15,10.15,0,0,1-2.31,6.94,7.5,7.5,0,0,1-5.91,2.64,7.31,7.31,0,0,1-1.89-.25,5.32,5.32,0,0,1-1.47-.63,10.84,10.84,0,0,1-1-.75,3.91,3.91,0,0,1-.62-.63l-.18-.25h-.07a14.07,14.07,0,0,1,.07,1.58v7.67Zm4.34-16.21a6.65,6.65,0,0,0,1.19,4,3.8,3.8,0,0,0,3.3,1.67,4.08,4.08,0,0,0,3.23-1.52,6.23,6.23,0,0,0,1.29-4.15,6.58,6.58,0,0,0-1.24-4.16,3.93,3.93,0,0,0-3.25-1.58,4.15,4.15,0,0,0-3.21,1.46A6.27,6.27,0,0,0,363.49,408.51Z"/><path class="cls-7" d="M379.2,412.27a5.2,5.2,0,0,1,.57-2.47,4.41,4.41,0,0,1,1.57-1.72,12.46,12.46,0,0,1,2.08-1.08,11.68,11.68,0,0,1,2.4-.63c.89-.13,1.62-.21,2.21-.25s1.2-.05,1.83-.05h.6v-.25q0-3.22-3.45-3.23a6.89,6.89,0,0,0-2.37.45,10,10,0,0,0-1.91.88l-.67.43-1.69-3.27c.21-.16.51-.37.9-.62a13,13,0,0,1,2.42-1,11.43,11.43,0,0,1,3.74-.63,7.57,7.57,0,0,1,5.52,1.91,7.12,7.12,0,0,1,2,5.38v11.44h-4.13V416l.07-1.29h-.07s0,.11-.14.34a4.14,4.14,0,0,1-.6.81,7.85,7.85,0,0,1-1,.93,5.61,5.61,0,0,1-1.59.81,6.68,6.68,0,0,1-2.12.34,6.4,6.4,0,0,1-4.32-1.54A5.24,5.24,0,0,1,379.2,412.27Zm4.52-.21a2.28,2.28,0,0,0,.71,1.67,2.76,2.76,0,0,0,2,.7,3.54,3.54,0,0,0,2.88-1.53,5.23,5.23,0,0,0,1.18-3.28v-.43h-.78Q383.72,409.19,383.72,412.06Z"/><path class="cls-7" d="M399.57,417.55v-18.3h4.31v3.16l-.07,1.29h.07a7.2,7.2,0,0,1,2.17-3.37A5.31,5.31,0,0,1,409.6,399l.81.08v4.48a6.64,6.64,0,0,0-1.06-.07,5,5,0,0,0-3,1,5.37,5.37,0,0,0-1.95,2.86,9.93,9.93,0,0,0-.39,3v7.25Z"/><path class="cls-7" d="M411.93,412.27a5.32,5.32,0,0,1,.56-2.47,4.49,4.49,0,0,1,1.57-1.72,13,13,0,0,1,2.09-1.08,11.68,11.68,0,0,1,2.4-.63c.88-.13,1.62-.21,2.2-.25s1.21-.05,1.84-.05h.6v-.25q0-3.22-3.46-3.23a6.88,6.88,0,0,0-2.36.45,9.71,9.71,0,0,0-1.91.88l-.67.43-1.7-3.27c.22-.16.52-.37.9-.62a13.32,13.32,0,0,1,2.42-1,11.47,11.47,0,0,1,3.74-.63,7.61,7.61,0,0,1,5.53,1.91,7.12,7.12,0,0,1,2,5.38v11.44h-4.13V416l.07-1.29h-.07s0,.11-.14.34a4.14,4.14,0,0,1-.6.81,8.7,8.7,0,0,1-1,.93,5.61,5.61,0,0,1-1.59.81A6.57,6.57,0,0,1,418,418a6.43,6.43,0,0,1-4.33-1.54A5.23,5.23,0,0,1,411.93,412.27Zm4.52-.21a2.27,2.27,0,0,0,.7,1.67,2.78,2.78,0,0,0,2,.7A3.52,3.52,0,0,0,422,412.9a5.24,5.24,0,0,0,1.19-3.28v-.43h-.78Q416.45,409.19,416.45,412.06Z"/><path class="cls-7" d="M440.63,411.84V392.08h4.45v19.08a3.28,3.28,0,0,0,.44,2,1.72,1.72,0,0,0,1.39.53l.68,0v4a9.19,9.19,0,0,1-1.42.11,8.7,8.7,0,0,1-1.94-.2,5.72,5.72,0,0,1-1.73-.75,3.55,3.55,0,0,1-1.37-1.82A8.5,8.5,0,0,1,440.63,411.84Z"/><path class="cls-7" d="M449.39,412.27a5.2,5.2,0,0,1,.56-2.47,4.49,4.49,0,0,1,1.57-1.72A12.86,12.86,0,0,1,453.6,407a11.61,11.61,0,0,1,2.41-.63c.88-.13,1.61-.21,2.2-.25s1.2-.05,1.84-.05h.6v-.25c0-2.15-1.16-3.23-3.46-3.23a6.93,6.93,0,0,0-2.37.45,9.58,9.58,0,0,0-1.9.88l-.67.43-1.7-3.27c.21-.16.51-.37.9-.62a13.32,13.32,0,0,1,2.42-1,11.43,11.43,0,0,1,3.74-.63,7.61,7.61,0,0,1,5.53,1.91,7.16,7.16,0,0,1,2,5.38v11.44H461V416l.07-1.29H461s0,.11-.15.34a3.45,3.45,0,0,1-.6.81,7.85,7.85,0,0,1-1,.93,5.61,5.61,0,0,1-1.59.81,6.63,6.63,0,0,1-2.12.34,6.42,6.42,0,0,1-4.32-1.54A5.23,5.23,0,0,1,449.39,412.27Zm4.51-.21a2.28,2.28,0,0,0,.71,1.67,2.76,2.76,0,0,0,2,.7,3.54,3.54,0,0,0,2.88-1.53,5.23,5.23,0,0,0,1.18-3.28v-.43h-.77C455.91,409.19,453.9,410.15,453.9,412.06Z"/><path class="cls-7" d="M468.24,415.29l2.05-3.19c.14.14.34.32.61.55a7.7,7.7,0,0,0,1.7.9,6.49,6.49,0,0,0,2.59.55,3.09,3.09,0,0,0,1.68-.43,1.35,1.35,0,0,0,.69-1.22,1.62,1.62,0,0,0-.9-1.3,11.74,11.74,0,0,0-2.19-1.1,26.6,26.6,0,0,1-2.58-1.16A6.49,6.49,0,0,1,469.7,407a4.57,4.57,0,0,1-.9-2.84,4.65,4.65,0,0,1,1.94-3.92,8.05,8.05,0,0,1,4.95-1.46,10.41,10.41,0,0,1,3.32.52,6.44,6.44,0,0,1,2.11,1.06l.6.5-1.65,3.38a6.22,6.22,0,0,0-.53-.45,7.2,7.2,0,0,0-1.5-.7,6.7,6.7,0,0,0-2.39-.43,3.09,3.09,0,0,0-1.62.41,1.36,1.36,0,0,0-.67,1.24,1.54,1.54,0,0,0,.9,1.24,13.21,13.21,0,0,0,2.19,1.05c.86.34,1.71.72,2.57,1.15a6.17,6.17,0,0,1,2.19,1.85,4.62,4.62,0,0,1,.9,2.85,4.89,4.89,0,0,1-1.87,3.93,7.58,7.58,0,0,1-5,1.56,10.28,10.28,0,0,1-3.73-.67A8.65,8.65,0,0,1,469,416Z"/><path class="cls-7" d="M494.29,417.55v-18.3h4.31v2.12l-.07,1.26h.07a7.23,7.23,0,0,1,2.31-2.66,5.91,5.91,0,0,1,3.55-1.15,5,5,0,0,1,5.26,3.77h.07a6.84,6.84,0,0,1,2.45-2.67,6.62,6.62,0,0,1,3.69-1.1q5.9,0,5.9,7v11.77h-4.48V406.64a5.78,5.78,0,0,0-.52-2.72,2,2,0,0,0-2-.93,3.7,3.7,0,0,0-2.78,1.16,6.17,6.17,0,0,0-1.56,3,10.39,10.39,0,0,0-.21,2.36v8h-4.48V406.64a5.93,5.93,0,0,0-.5-2.7,2,2,0,0,0-1.94-.95,3.78,3.78,0,0,0-2.81,1.16,6.4,6.4,0,0,0-1.6,3,10,10,0,0,0-.21,2.33v8Z"/><path class="cls-7" d="M526.28,411V399.25h4.48v10.84a5.16,5.16,0,0,0,.62,2.78,2.39,2.39,0,0,0,2.17.95,4.39,4.39,0,0,0,3.69-1.8,7,7,0,0,0,1.36-4.37v-8.4h4.48v18.3h-4.31v-2.08l.08-1.29h-.08a6.9,6.9,0,0,1-2.41,2.67,6.74,6.74,0,0,1-3.83,1.13Q526.28,418,526.28,411Z"/><path class="cls-7" d="M548,399.25h4.49v18.84a7.6,7.6,0,0,1-.57,3.06,5.54,5.54,0,0,1-1.36,2,6.33,6.33,0,0,1-1.89,1.13,9.08,9.08,0,0,1-2,.56A12.76,12.76,0,0,1,545,425l-1.38-.11V421a4.16,4.16,0,0,0,.78.07,4.6,4.6,0,0,0,1.13-.13,5.71,5.71,0,0,0,1.15-.43,2.17,2.17,0,0,0,1-1,3.86,3.86,0,0,0,.37-1.77Zm0-3.12v-4.05h4.45v4.05Z"/><path class="cls-7" d="M556.18,408.4a9.54,9.54,0,0,1,2.56-6.9,8.73,8.73,0,0,1,6.58-2.68,7.31,7.31,0,0,1,5.88,2.46,9.24,9.24,0,0,1,2.1,6.22l-.1,1.76H560.77a5,5,0,0,0,1.75,3.57,5.52,5.52,0,0,0,3.65,1.27,7,7,0,0,0,2.58-.5,8.26,8.26,0,0,0,2-1l.64-.5,1.73,3.26-.32.29a8.28,8.28,0,0,1-.93.62,12,12,0,0,1-1.5.79,11.62,11.62,0,0,1-2,.63,10.87,10.87,0,0,1-2.49.29,9.29,9.29,0,0,1-7-2.78A9.49,9.49,0,0,1,556.18,408.4Zm4.73-2.26h7.87a3.9,3.9,0,0,0-1-2.8,3.41,3.41,0,0,0-2.52-1,4.12,4.12,0,0,0-2.86,1A4.68,4.68,0,0,0,560.91,406.14Z"/><path class="cls-7" d="M577,417.55v-18.3h4.31v3.16l-.07,1.29h.07a7.12,7.12,0,0,1,2.17-3.37A5.27,5.27,0,0,1,587,399l.82.08v4.48a6.72,6.72,0,0,0-1.06-.07,5,5,0,0,0-2.95,1,5.33,5.33,0,0,0-2,2.86,9.93,9.93,0,0,0-.39,3v7.25Z"/><path class="cls-7" d="M589.61,408.4a9.54,9.54,0,0,1,2.56-6.9,8.73,8.73,0,0,1,6.58-2.68,7.31,7.31,0,0,1,5.88,2.46,9.24,9.24,0,0,1,2.1,6.22l-.1,1.76H594.2a5,5,0,0,0,1.75,3.57,5.52,5.52,0,0,0,3.65,1.27,7,7,0,0,0,2.58-.5,8.56,8.56,0,0,0,2-1l.63-.5,1.73,3.26a3.64,3.64,0,0,1-.32.29,8.28,8.28,0,0,1-.93.62,10.73,10.73,0,0,1-1.5.79,11.34,11.34,0,0,1-2,.63,10.87,10.87,0,0,1-2.49.29,9.26,9.26,0,0,1-7-2.78A9.46,9.46,0,0,1,589.61,408.4Zm4.73-2.26h7.88a3.94,3.94,0,0,0-1.05-2.8,3.41,3.41,0,0,0-2.52-1,4.14,4.14,0,0,0-2.86,1A4.74,4.74,0,0,0,594.34,406.14Z"/><path class="cls-7" d="M608.92,415.29,611,412.1c.14.14.35.32.62.55a7.56,7.56,0,0,0,1.69.9,6.53,6.53,0,0,0,2.6.55,3,3,0,0,0,1.67-.43,1.35,1.35,0,0,0,.69-1.22,1.62,1.62,0,0,0-.9-1.3,11.74,11.74,0,0,0-2.19-1.1,26.45,26.45,0,0,1-2.57-1.16,6.49,6.49,0,0,1-2.19-1.85,4.57,4.57,0,0,1-.9-2.84,4.62,4.62,0,0,1,1.94-3.92,8,8,0,0,1,4.94-1.46,10.36,10.36,0,0,1,3.32.52,6.51,6.51,0,0,1,2.12,1.06l.6.5-1.66,3.38a6.22,6.22,0,0,0-.53-.45,7.2,7.2,0,0,0-1.5-.7,6.68,6.68,0,0,0-2.38-.43,3.11,3.11,0,0,0-1.63.41,1.36,1.36,0,0,0-.67,1.24,1.54,1.54,0,0,0,.9,1.24,13.21,13.21,0,0,0,2.19,1.05c.86.34,1.72.72,2.58,1.15a6.17,6.17,0,0,1,2.19,1.85,4.62,4.62,0,0,1,.9,2.85,4.92,4.92,0,0,1-1.87,3.93,7.59,7.59,0,0,1-5,1.56,10.19,10.19,0,0,1-3.72-.67,8.59,8.59,0,0,1-2.53-1.34Z"/></svg>